<svg width="200" height="183" viewBox="0 0 200 183" fill="none" xmlns="http://www.w3.org/2000/svg">
<path d="M87.1811 46.8125C86.3915 39.6555 87.1017 33.614 89.2952 28.8468C90.2513 26.6579 91.6387 24.684 93.3744 23.0431C95.1101 21.4021 97.1587 20.1276 99.3978 19.2958C103.994 17.5535 109.534 17.3739 115.884 18.761C122.461 20.2191 129.613 23.2649 137.147 27.865C145.168 32.8351 152.614 38.6782 159.349 45.2875C166.348 52.084 172.704 59.5121 178.338 67.4771C183.751 75.0388 188.38 83.1316 192.155 91.6305C195.786 99.9448 198.004 107.787 198.815 114.944C199.625 122.101 198.89 128.143 196.701 132.91C194.582 137.506 191.186 140.723 186.594 142.461C182.002 144.199 176.458 144.383 170.107 142.996C163.535 141.562 156.378 138.5 148.845 133.904C140.833 128.929 133.394 123.085 126.664 116.477C119.665 109.681 113.308 102.253 107.675 94.2877C102.261 86.7266 97.6313 78.6337 93.8577 70.1344C90.2311 61.8242 88.0084 53.9778 87.202 46.8208L87.1811 46.8125ZM86.9346 46.6621C90.1768 76.0798 117.907 115.253 148.874 134.155C179.842 153.056 202.299 144.525 199.04 115.107C195.781 85.6893 168.089 46.5158 137.121 27.6101C106.154 8.70441 83.6757 17.2318 86.9137 46.6537L86.9346 46.6621Z" stroke="#C26624" stroke-width="0.219527"/>
<path d="M85.9266 44.8196C85.6216 37.625 86.8123 31.6462 89.4612 27.0545C90.6657 24.9061 92.2862 23.0192 94.2281 21.5041C96.17 19.9891 98.3944 18.8762 100.771 18.2304C105.718 16.8141 111.559 17.023 118.127 18.8488C124.925 20.7373 132.211 24.2803 139.786 29.4026C147.794 34.8876 155.175 41.236 161.796 48.3333C168.619 55.5645 174.75 63.4187 180.108 71.7931C185.219 79.6808 189.487 88.0829 192.843 96.8615C196.043 105.406 197.819 113.39 198.12 120.584C198.421 127.779 197.234 133.754 194.585 138.35C193.381 140.499 191.759 142.386 189.817 143.901C187.874 145.416 185.649 146.529 183.271 147.174C178.329 148.59 172.488 148.381 165.92 146.555C159.122 144.667 151.835 141.124 144.261 136.002C136.253 130.516 128.872 124.168 122.251 117.071C115.428 109.84 109.297 101.985 103.938 93.6109C98.8281 85.7233 94.5598 77.3212 91.2035 68.5426C88.0031 59.9985 86.2274 52.0142 85.9266 44.8196V44.8196ZM85.6592 44.6399C86.9126 74.2122 113.142 115.224 144.273 136.244C175.404 157.264 199.632 150.324 198.387 120.752C197.142 91.1793 170.904 50.1633 139.773 29.1477C108.643 8.13206 84.4141 15.0676 85.6592 44.6399V44.6399Z" stroke="#C26624" stroke-width="0.219527"/>
<path d="M84.7536 42.7434C84.9666 35.5487 86.6546 29.666 89.7672 25.2665C92.7796 21.0175 96.9911 18.3226 102.301 17.253C107.612 16.1834 113.716 16.8018 120.48 19.083C127.478 21.4394 134.869 25.4922 142.448 31.12C150.416 37.1118 157.701 43.9603 164.174 51.5423C170.778 59.1883 176.637 67.4467 181.672 76.2054C186.441 84.396 190.304 93.0819 193.191 102.109C195.927 110.858 197.206 118.943 196.993 126.142C196.78 133.34 195.096 139.219 191.979 143.618C188.967 147.867 184.751 150.562 179.445 151.632C174.139 152.701 168.031 152.083 161.27 149.806C154.268 147.445 146.877 143.393 139.302 137.765C131.337 131.772 124.051 124.925 117.576 117.347C110.971 109.693 105.11 101.427 100.07 92.6628C95.2998 84.4785 91.4333 75.7998 88.5389 66.7797C85.8064 58.0309 84.5279 49.9463 84.7368 42.7475L84.7536 42.7434ZM84.4694 42.5512C83.6046 72.1402 108.146 114.882 139.294 138.02C170.441 161.158 196.408 155.923 197.273 126.342C198.138 96.7615 173.596 54.0032 142.453 30.8651C111.309 7.72705 85.3552 12.958 84.4862 42.5637L84.4694 42.5512Z" stroke="#C26624" stroke-width="0.219527"/>
<path d="M83.6755 40.5912C84.4275 33.4258 86.6336 27.6768 90.2309 23.5071C93.707 19.4795 98.3279 17.0813 103.972 16.4044C109.617 15.7276 115.989 16.747 122.924 19.4962C130.102 22.3373 137.547 26.8955 145.11 33.0373C152.991 39.5311 160.137 46.8699 166.418 54.9219C172.767 62.9775 178.316 71.6321 182.988 80.7632C187.613 89.8004 191.047 98.7665 193.191 107.373C195.418 116.289 196.17 124.445 195.418 131.606C194.666 138.767 192.464 144.52 188.862 148.69C185.39 152.722 180.765 155.116 175.125 155.793C169.484 156.47 163.105 155.45 156.173 152.705C148.995 149.86 141.529 145.306 133.988 139.16C126.104 132.668 118.958 125.329 112.68 117.275C106.329 109.221 100.78 100.566 96.1094 91.434C91.4885 82.3801 88.0541 73.4224 85.9024 64.8072C83.6713 55.8912 82.9234 47.7357 83.6713 40.5745L83.6755 40.5912ZM83.4081 40.3572C80.3247 69.8125 102.957 114.163 133.963 139.419C164.968 164.675 192.61 161.283 195.698 131.827C198.785 102.372 176.14 58.022 145.143 32.7532C114.146 7.48426 86.4957 10.9186 83.4123 40.3739L83.4081 40.3572Z" stroke="#C26624" stroke-width="0.219527"/>
<path d="M82.7021 38.3686C84.0182 31.2659 86.7548 25.6923 90.841 21.7817C94.7851 18.0214 99.8155 15.9324 105.79 15.6399C111.765 15.3475 118.404 16.8223 125.465 20.0436C132.793 23.386 140.297 28.4457 147.767 35.0846C155.531 42.0729 162.498 49.8987 168.54 58.4191C174.592 66.8586 179.785 75.8821 184.041 85.355C188.219 94.7097 191.177 103.885 192.815 112.629C194.486 121.679 194.687 129.864 193.375 136.962C192.063 144.061 189.322 149.639 185.236 153.549C181.292 157.309 176.261 159.399 170.287 159.691C164.312 159.983 157.677 158.513 150.604 155.287C143.276 151.945 135.772 146.885 128.301 140.246C120.543 133.256 113.581 125.431 107.541 116.912C101.486 108.478 96.2886 99.4602 92.0276 89.9926C87.8495 80.638 84.8914 71.463 83.2536 62.7225C81.5824 53.6686 81.3819 45.4838 82.6938 38.3853L82.7021 38.3686ZM82.4306 38.1513C77.0325 67.3183 97.5426 113.143 128.247 140.514C158.952 167.884 188.219 166.418 193.621 137.23C199.023 108.042 178.518 62.2086 147.813 34.8423C117.108 7.476 87.8411 8.96757 82.4389 38.1346L82.4306 38.1513Z" stroke="#C26624" stroke-width="0.219527"/>
<path d="M81.8446 36.0956C83.7456 29.1099 87.0296 23.7327 91.6045 20.1187C96.0249 16.6258 101.461 14.917 107.757 15.034C114.053 15.151 120.897 17.0896 128.092 20.7997C135.533 24.6268 143.053 30.2045 150.407 37.349C158.007 44.811 164.747 53.1004 170.503 62.0622C176.222 70.8609 181.014 80.2279 184.804 90.0134C188.515 99.623 190.938 108.994 192.007 117.831C193.11 126.977 192.705 135.157 190.808 142.143C188.911 149.129 185.619 154.506 181.044 158.12C176.624 161.613 171.188 163.326 164.892 163.209C158.596 163.092 151.756 161.149 144.557 157.443C137.108 153.603 129.6 148.026 122.246 140.865C114.646 133.403 107.904 125.115 102.146 116.156C96.4302 107.355 91.6377 97.9883 87.8443 88.2043C84.1342 78.5948 81.7109 69.2192 80.6455 60.3868C79.5467 51.2536 79.9645 43.0729 81.8446 36.0956ZM81.5856 35.8449C73.7726 64.5649 91.9471 111.706 122.18 141.132C152.412 170.558 183.254 171.139 191.067 142.415C198.88 113.69 180.706 66.5536 150.473 37.1276C120.241 7.70151 89.3985 7.11241 81.5856 35.8324V35.8449Z" stroke="#C26624" stroke-width="0.219527"/>
<path d="M81.1103 33.7478C83.6171 26.9084 87.4651 21.7735 92.5331 18.4854C97.434 15.3143 103.267 13.9856 109.868 14.5413C116.469 15.097 123.513 17.5077 130.8 21.7109C138.341 26.0602 145.812 32.156 153.01 39.8018C160.406 47.7289 166.877 56.4696 172.301 65.8562C177.634 74.9935 181.976 84.6748 185.253 94.7349C188.445 104.595 190.3 114.1 190.772 122.987C191.261 132.179 190.237 140.322 187.726 147.161C185.215 154.001 181.375 159.131 176.303 162.419C171.406 165.595 165.574 166.919 158.973 166.364C152.371 165.808 145.327 163.397 138.04 159.194C130.52 154.845 123.025 148.749 115.83 141.103C108.437 133.181 101.969 124.444 96.5482 115.061C91.2162 105.923 86.8743 96.2419 83.5962 86.1825C80.4084 76.3223 78.5533 66.8172 78.0812 57.9304C77.5924 48.7387 78.616 40.5957 81.1228 33.7604L81.1103 33.7478ZM80.8721 33.4888C70.544 61.5821 86.1657 109.876 115.751 141.341C145.335 172.806 177.682 175.534 187.993 147.429C198.305 119.323 182.683 71.0286 153.081 39.5637C123.48 8.09875 91.171 5.37048 80.8596 33.4763L80.8721 33.4888Z" stroke="#C26624" stroke-width="0.219527"/>
<path d="M80.5126 31.3619C83.6504 24.7146 88.0624 19.8639 93.6276 16.9351C99.0047 14.1107 105.226 13.1748 112.12 14.2068C119.013 15.2388 126.229 18.13 133.57 22.822C141.17 27.6852 148.569 34.2824 155.588 42.4213C162.74 50.7922 168.896 59.9645 173.934 69.7541C178.851 79.2034 182.705 89.1692 185.424 99.4685C188.052 109.525 189.301 119.139 189.146 128.038C188.983 137.251 187.308 145.289 184.174 151.937C181.041 158.584 176.604 163.435 171.047 166.359C165.674 169.188 159.449 170.119 152.559 169.087C145.669 168.055 138.433 165.198 131.092 160.476C123.492 155.609 116.093 149.016 109.099 140.877C101.946 132.507 95.7895 123.335 90.7531 113.544C85.8345 104.095 81.9797 94.1294 79.2592 83.83C76.6354 73.7692 75.382 64.1597 75.5407 55.2604C75.7037 46.0478 77.3749 38.005 80.5126 31.3619V31.3619ZM80.2661 31.0736C67.3726 58.3898 80.2327 107.657 108.986 141.111C137.739 174.565 171.507 179.541 184.417 152.246C197.327 124.95 184.45 75.6619 155.693 42.204C126.935 8.74611 93.1596 3.7575 80.2661 31.082V31.0736Z" stroke="#C26624" stroke-width="0.219527"/>
<path d="M80.0567 28.939C83.8378 22.5298 88.8306 17.9966 94.8888 15.4647C100.738 13.0206 107.344 12.5401 114.526 14.0358C121.708 15.5316 129.053 18.9242 136.414 24.1217C144.039 29.5072 151.326 36.6015 158.074 45.2083C164.939 54.0052 170.732 63.589 175.329 73.757C179.786 83.488 183.099 93.7035 185.202 104.198C187.22 114.414 187.825 124.09 187.011 132.956C186.175 142.148 183.815 150.04 180.033 156.453C176.252 162.867 171.259 167.396 165.201 169.928C159.352 172.368 152.747 172.852 145.585 171.356C138.424 169.861 131.054 166.468 123.692 161.271C116.067 155.885 108.781 148.791 102.033 140.184C95.1691 131.386 89.3766 121.802 84.7779 111.635C80.3179 101.904 77.0006 91.6888 74.8926 81.1939C72.8746 70.9786 72.2646 61.3022 73.0835 52.4364C73.9191 43.2446 76.2755 35.3523 80.0567 28.939V28.939ZM79.8185 28.6381C64.2761 54.9892 74.1614 105.034 101.9 140.41C129.638 175.785 164.725 183.105 180.272 156.754C195.818 130.403 185.929 80.3834 158.191 44.9827C130.452 9.58202 95.3651 2.28714 79.8185 28.6381V28.6381Z" stroke="#C26624" stroke-width="0.219527"/>
<path d="M79.7617 26.4862C84.203 20.3528 89.789 16.1789 96.3235 14.0773C102.649 12.051 109.618 12.0301 117.03 14.0188C124.442 16.0076 131.925 19.9182 139.295 25.6171C146.903 31.5207 154.035 39.1039 160.49 48.1786C167.02 57.3768 172.401 67.3387 176.513 77.8428C180.473 87.8287 183.208 98.2581 184.656 108.903C186.026 119.235 185.955 128.928 184.447 137.731C182.88 146.827 179.851 154.548 175.397 160.681C170.944 166.815 165.37 170.988 158.831 173.086C152.506 175.116 145.541 175.137 138.129 173.149C130.717 171.16 123.23 167.257 115.881 161.554C108.252 155.642 101.12 148.068 94.669 139.001C88.1357 129.797 82.7533 119.828 78.642 109.316C74.6831 99.3313 71.9488 88.9034 70.4989 78.2606C69.1285 67.9283 69.1996 58.231 70.712 49.432C72.2746 40.3364 75.3079 32.6112 79.7617 26.482V26.4862ZM79.5319 26.1603C61.2738 51.3665 67.9796 101.975 94.5102 139.202C121.041 176.428 157.348 186.18 175.606 160.974C193.864 135.767 187.159 85.1628 160.628 47.9321C134.097 10.7014 97.79 0.970755 79.5486 26.1728L79.5319 26.1603Z" stroke="#C26624" stroke-width="0.219527"/>
<path d="M79.628 24.0335C84.7419 18.226 90.9087 14.4491 97.932 12.8113C104.721 11.2278 112.037 11.6957 119.658 14.1942C127.279 16.6927 134.887 21.1089 142.186 27.3216C149.74 33.7308 156.676 41.7944 162.788 51.2786C168.946 60.8623 173.868 71.1859 177.436 82.0041C180.851 92.2143 182.957 102.816 183.703 113.557C184.38 123.96 183.595 133.611 181.364 142.285C179.053 151.251 175.289 158.742 170.175 164.55C165.061 170.357 158.894 174.13 151.871 175.772C145.081 177.356 137.766 176.888 130.145 174.385C122.524 171.882 114.933 167.47 107.633 161.27C100.075 154.853 93.144 146.789 87.0315 137.305C80.8727 127.72 75.9509 117.395 72.3832 106.575C68.9682 96.3664 66.8624 85.7656 66.1161 75.0267C65.4393 64.6233 66.2247 54.972 68.4558 46.2942C70.7496 37.349 74.5349 29.8285 79.628 24.0335ZM79.4107 23.6993C58.3867 47.5643 61.7124 98.5199 86.8393 137.51C111.966 176.499 149.372 188.753 170.4 164.884C191.429 141.015 188.099 90.0594 162.972 51.0739C137.845 12.0885 100.439 -0.16997 79.4107 23.6993V23.6993Z" stroke="#C26624" stroke-width="0.219527"/>
<path d="M79.664 21.5685C85.4631 16.1371 92.1981 12.7946 99.7186 11.6498C106.968 10.5468 114.613 11.5203 122.451 14.5494C130.289 17.5785 137.91 22.4877 145.126 29.2018C152.588 36.1332 159.277 44.6607 164.997 54.5501C170.74 64.4895 175.149 75.1417 178.112 86.2323C180.953 96.6314 182.389 107.364 182.382 118.144C182.331 128.569 180.794 138.153 177.819 146.639C174.736 155.413 170.232 162.632 164.449 168.068C158.667 173.504 151.915 176.842 144.395 177.987C137.146 179.09 129.496 178.116 121.662 175.087C113.828 172.058 106.203 167.149 98.9875 160.435C91.5213 153.503 84.8364 144.976 79.1125 135.086C73.3713 125.148 68.9592 114.499 65.9892 103.412C63.1526 93.0125 61.7166 82.2804 61.7192 71.5005C61.7735 61.0762 63.3069 51.4876 66.2858 43.0061C69.3692 34.2322 73.8732 27.0125 79.6556 21.5769L79.664 21.5685ZM79.4551 21.2259C55.6401 43.5702 55.3769 94.6344 78.8952 135.287C102.413 175.939 140.801 190.767 164.629 168.423C188.456 146.079 188.715 95.0062 165.197 54.3579C141.679 13.7096 103.291 -1.12668 79.4634 21.2176L79.4551 21.2259Z" stroke="#C26624" stroke-width="0.219527"/>
<path d="M79.8901 19.1122C86.1446 14.1808 93.7247 11.2212 101.666 10.6099C109.358 10.0124 117.317 11.5165 125.322 15.0846C133.327 18.6527 140.965 24.1134 148.068 31.2955C155.4 38.7282 161.793 47.7027 167.074 57.964C172.358 68.2286 176.212 79.1679 178.53 90.4776C180.745 101.034 181.465 111.85 180.669 122.607C179.833 133.006 177.535 142.461 173.784 150.717C169.902 159.265 164.642 166.142 158.158 171.16C151.899 176.091 144.314 179.048 136.369 179.654C128.677 180.252 120.718 178.747 112.713 175.179C104.708 171.611 97.0577 166.159 89.9926 158.977C82.6643 151.544 76.2719 142.57 70.9866 132.308C65.704 122.044 61.8509 111.104 59.5346 99.7947C57.3184 89.2383 56.5969 78.4227 57.3912 67.6654C58.2268 57.2663 60.5289 47.8113 64.2767 39.5555C68.1622 31.0072 73.4182 24.1301 79.9068 19.1122H79.8901ZM79.7188 18.7487C53.0419 39.3758 49.0476 90.298 70.7401 132.484C92.4326 174.67 131.669 192.151 158.333 171.524C184.997 150.897 189.013 99.9744 167.287 57.7885C145.561 15.6027 106.362 -1.87832 79.702 18.7487H79.7188Z" stroke="#C26624" stroke-width="0.219527"/>
<path d="M80.3048 16.6761C87.3103 12.1742 95.454 9.76255 103.781 9.72379C111.903 9.66112 120.151 11.7209 128.294 15.8405C136.437 19.96 144.083 25.9263 150.993 33.5889C158.146 41.5272 164.2 50.9153 168.992 61.5192C173.774 72.0804 177.021 83.271 178.635 94.7514C180.187 105.433 180.149 116.285 178.523 126.956C176.901 137.267 173.772 146.543 169.231 154.531C164.522 162.787 158.497 169.28 151.319 173.834C144.308 178.337 136.159 180.75 127.826 180.79C119.708 180.849 111.461 178.793 103.313 174.674C95.1661 170.554 87.537 164.583 80.6307 156.929C73.482 148.991 67.4238 139.603 62.6316 128.995C57.8519 118.433 54.6062 107.243 52.9928 95.7625C51.4415 85.0824 51.4781 74.2316 53.1015 63.5622C54.7267 53.2466 57.8519 43.9755 62.3976 35.9871C67.1021 27.7354 73.1269 21.2385 80.309 16.6844L80.3048 16.6761ZM80.1377 16.3126C50.628 35.0303 42.6772 85.5472 62.3809 129.145C82.0846 172.743 121.973 192.907 151.482 174.189C180.992 155.471 188.947 104.954 169.243 61.3562C149.539 17.7582 109.631 -2.41346 80.1335 16.3042L80.1377 16.3126Z" stroke="#C26624" stroke-width="0.219527"/>
<path d="M80.9181 14.2782C88.6746 10.2616 97.3776 8.43031 106.095 8.98043C114.627 9.48598 123.137 12.114 131.385 16.7892C139.632 21.4645 147.232 27.953 153.917 36.096C161.044 44.8457 166.732 54.6744 170.767 65.2129C175.003 76.0471 177.592 87.4542 178.451 99.0552C179.294 109.825 178.457 120.66 175.969 131.172C173.508 141.345 169.543 150.391 164.187 158.016C158.638 165.925 151.832 171.983 143.961 176.023C136.204 180.04 127.501 181.871 118.784 181.321C110.252 180.816 101.742 178.188 93.494 173.512C85.2466 168.837 77.6676 162.349 70.9785 154.226C63.8436 145.472 58.1498 135.636 54.1117 125.089C49.8735 114.255 47.2836 102.848 46.4282 91.2464C45.583 80.4769 46.4203 69.6415 48.91 59.1297C51.3709 48.9519 55.3358 39.9106 60.6921 32.2856C66.2406 24.3766 73.0424 18.3184 80.9181 14.2782V14.2782ZM80.7677 13.8938C48.4044 30.5058 36.3466 80.3458 53.8317 125.214C71.3169 170.082 111.719 192.982 144.094 176.37C176.47 159.758 188.516 109.918 171.047 65.05C153.579 20.1818 113.131 -2.71813 80.7677 13.8938V13.8938Z" stroke="#C26624" stroke-width="0.219527"/>
<path d="M81.7365 11.9258C90.2246 8.45406 99.4666 7.23782 108.564 8.39536C117.488 9.49836 126.229 12.7155 134.547 17.9548C142.866 23.194 150.349 30.1965 156.774 38.7615C163.578 47.9172 168.833 58.1276 172.329 68.9855C175.974 80.0425 177.859 91.6035 177.915 103.246C178.007 114.068 176.331 124.834 172.952 135.116C169.609 145.093 164.792 153.829 158.604 161.074C152.199 168.574 144.612 174.143 136.043 177.623C127.555 181.102 118.311 182.323 109.211 181.166C100.291 180.068 91.5466 176.85 83.2281 171.611C74.9096 166.372 67.4267 159.369 61.0008 150.804C54.197 141.649 48.9421 131.438 45.4459 120.58C41.8016 109.523 39.9166 97.9624 39.8598 86.3203C39.7688 75.5003 41.4454 64.738 44.8234 54.4584C48.1658 44.4771 52.9831 35.7449 59.1708 28.5002C65.5758 21.0006 73.1631 15.4312 81.7323 11.9467L81.7365 11.9258ZM81.6028 11.554C46.4068 25.8471 30.0832 74.7262 45.1493 120.702C60.2153 166.677 100.972 192.355 136.177 178.033C171.381 163.71 187.7 114.84 172.634 68.8644C157.568 22.889 116.811 -2.76006 81.607 11.5331L81.6028 11.554Z" stroke="#C26624" stroke-width="0.219527"/>
<path d="M82.7726 9.63999C91.964 6.76684 101.721 6.20006 111.183 7.98966C120.492 9.71102 129.433 13.5339 137.785 19.3331C146.361 25.3703 153.754 32.933 159.595 41.6439C166.034 51.1757 170.808 61.7319 173.712 72.8624C176.723 84.127 177.852 95.8115 177.055 107.444C176.349 118.278 173.794 128.912 169.501 138.884C165.268 148.606 159.561 156.983 152.534 163.777C145.526 170.651 136.992 175.771 127.628 178.718C118.438 181.593 108.682 182.167 99.2174 180.389C89.9296 178.667 80.9844 174.849 72.6325 169.041C64.0553 163.006 56.6612 155.444 50.8188 146.735C44.3732 137.192 39.5965 126.622 36.6928 115.479C33.6805 104.213 32.5512 92.5267 33.3504 80.8926C34.0575 70.0631 36.6109 59.4342 40.9001 49.4652C45.1283 39.7429 50.8397 31.3701 57.8672 24.5724C64.8739 17.6978 73.4084 12.5794 82.7726 9.63581V9.63999ZM82.664 9.21801C44.6478 21.0544 23.9205 68.6843 36.3669 115.596C48.8134 162.507 89.7207 190.959 127.741 179.135C165.761 167.312 186.505 119.694 174.038 72.7746C161.571 25.855 120.68 -2.58919 82.664 9.23472V9.21801Z" stroke="#C26624" stroke-width="0.219527"/>
<path d="M84.0268 7.43007C93.9073 5.20283 104.172 5.3173 114 7.76432C123.842 10.2337 133.064 14.7195 141.082 20.9377C149.577 27.4838 156.787 35.5453 162.349 44.7151C168.386 54.6075 172.63 65.4886 174.883 76.8569C177.221 88.29 177.551 100.043 175.86 111.589C174.305 122.396 170.836 132.838 165.616 142.427C160.706 151.536 154.03 159.575 145.979 166.075C138.023 172.491 128.7 176.995 118.73 179.24C108.849 181.465 98.585 181.351 88.7564 178.906C78.9145 176.437 69.6925 171.951 61.6742 165.733C53.1794 159.186 45.9692 151.125 40.4079 141.955C34.3701 132.063 30.1269 121.182 27.8737 109.813C25.5387 98.3798 25.2107 86.6272 26.9044 75.0812C28.4543 64.2757 31.9177 53.833 37.1323 44.2429C42.0421 35.1342 48.7177 27.0951 56.7691 20.5951C64.7253 14.1797 74.0477 9.67574 84.0184 7.43007H84.0268ZM83.9349 7.01227C43.157 16.1622 17.8923 62.2211 27.5186 109.893C37.1448 157.564 78.0104 188.795 118.822 179.65C159.633 170.504 184.835 124.449 175.225 76.7775C165.616 29.1058 124.734 -2.12514 83.9432 7.02062L83.9349 7.01227Z" stroke="#C26624" stroke-width="0.219527"/>
<path d="M85.5059 5.31182C96.0404 3.7799 106.784 4.60905 116.958 7.73928C127.034 10.8499 136.377 15.9661 144.425 22.7803C152.8 29.8221 159.782 38.3701 165.01 47.9823C176.22 68.658 179.516 92.7086 174.281 115.638C171.83 126.37 167.417 136.558 161.262 145.686C155.36 154.506 147.756 162.06 138.897 167.905C130 173.771 119.918 177.6 109.37 179.12C98.8218 180.641 88.0685 179.814 77.8768 176.7C67.8 173.588 58.456 168.472 50.4061 161.659C42.0361 154.619 35.0571 146.076 29.8291 136.469C18.6175 115.793 15.3174 91.742 20.5455 68.81C22.9967 58.0792 27.409 47.8935 33.5601 38.7655C39.4655 29.9448 47.0701 22.3898 55.9295 16.5424C64.8408 10.6662 74.9403 6.83129 85.5059 5.31182V5.31182ZM85.4516 4.89402C41.9455 11.1736 12.039 55.3566 18.6445 103.584C25.25 151.811 65.8565 185.816 109.375 179.537C152.894 173.257 182.788 129.078 176.178 80.8553C169.568 32.6322 128.954 -1.37725 85.4516 4.8982V4.89402Z" stroke="#C26624" stroke-width="0.219527"/>
<path d="M87.2129 3.30233C98.3638 2.50033 109.558 4.06658 120.061 7.89819C130.332 11.6546 139.76 17.4037 147.803 24.8151C156.016 32.3389 162.723 41.3568 167.565 51.3876C177.806 72.6565 179.512 97.0399 172.332 119.528C168.932 130.136 163.544 140 156.456 148.594C149.529 157.054 140.998 164.061 131.354 169.213C121.48 174.465 110.612 177.582 99.4553 178.361C88.2986 179.141 77.1026 177.566 66.5942 173.738C56.3288 169.986 46.9053 164.244 38.8644 156.842C30.6514 149.316 23.9448 140.297 19.1022 130.265C8.85922 108.994 7.15329 84.607 14.335 62.1168C17.7368 51.5091 23.1247 41.645 30.2117 33.0501C37.1398 24.5948 45.6704 17.592 55.3134 12.4439C65.1824 7.17998 76.0538 4.06451 87.2129 3.30233V3.30233ZM87.1837 2.88452C41.0454 6.11416 6.39255 48.0995 9.7726 96.6777C13.1526 145.256 53.3414 181.998 99.4839 178.772C145.626 175.547 180.275 133.557 176.895 84.9792C173.515 36.4009 133.326 -0.34094 87.1837 2.88452Z" stroke="#C26624" stroke-width="0.219527"/>
<path d="M89.157 1.41781C106.516 1.40422 123.489 6.542 137.926 16.1806C152.364 25.8192 163.616 39.5251 170.259 55.5629C176.902 71.6006 178.637 89.249 175.244 106.273C171.85 123.297 163.481 138.932 151.197 151.197C142.038 160.341 130.97 167.346 118.786 171.709C106.602 176.073 93.6028 177.686 80.7215 176.435C67.8401 175.184 55.395 171.098 44.2784 164.471C33.1617 157.844 23.6488 148.84 16.4215 138.104C9.19412 127.368 4.43136 115.166 2.47457 102.373C0.517789 89.5795 1.41544 76.5118 5.10318 64.1063C8.79092 51.7008 15.1774 40.2647 23.8049 30.6178C32.4324 20.9709 43.0872 13.3521 55.0056 8.30742C65.8099 3.73667 77.4256 1.39336 89.157 1.41781V1.41781ZM89.157 1C40.4701 1 1 40.4701 1 89.157C1 137.844 40.4701 177.314 89.157 177.314C137.844 177.314 177.314 137.844 177.314 89.157C177.314 40.4701 137.844 1 89.157 1Z" stroke="#C26624" stroke-width="0.219527"/>
</svg>
